<svg width="1000" height="1000" viewBox="0 0 1000 1000" fill="none" xmlns="http://www.w3.org/2000/svg">
<rect width="1000" height="1000" fill="white"/>
<g filter="url(#filter0_d_24_65)">
<path d="M502.213 539C635.313 539 743.213 431.101 743.213 298C743.213 164.899 635.313 57 502.213 57C369.112 57 261.213 164.899 261.213 298C261.213 431.101 369.112 539 502.213 539Z" fill="#94A3B8"/>
<path d="M524.791 581.303C518.165 582.504 511.385 582.581 504.733 581.531L420.429 568.218C415.306 567.41 410.31 565.94 405.566 563.846L338.827 534.398C327.899 529.576 315.78 528.125 304.022 530.232L202.166 548.484C179.697 552.51 161.459 568.938 155.114 590.865L75.4019 866.321C64.2976 904.694 93.0899 943 133.037 943H867.92C908.887 943 937.807 902.854 924.831 863.996L832.546 587.635C825.807 567.453 808.884 552.351 788.07 547.941L708.871 531.164C696.114 528.462 682.823 529.989 671.012 535.515L610.771 563.698C606.085 565.89 601.135 567.467 596.045 568.39L524.791 581.303Z" fill="#94A3B8"/>
</g>
<defs>
<filter id="filter0_d_24_65" x="71" y="57" width="862.966" height="894" filterUnits="userSpaceOnUse" color-interpolation-filters="sRGB">
<feFlood flood-opacity="0" result="BackgroundImageFix"/>
<feColorMatrix in="SourceAlpha" type="matrix" values="0 0 0 0 0 0 0 0 0 0 0 0 0 0 0 0 0 0 127 0" result="hardAlpha"/>
<feOffset dx="2" dy="4"/>
<feGaussianBlur stdDeviation="2"/>
<feComposite in2="hardAlpha" operator="out"/>
<feColorMatrix type="matrix" values="0 0 0 0 0 0 0 0 0 0 0 0 0 0 0 0 0 0 0.25 0"/>
<feBlend mode="normal" in2="BackgroundImageFix" result="effect1_dropShadow_24_65"/>
<feBlend mode="normal" in="SourceGraphic" in2="effect1_dropShadow_24_65" result="shape"/>
</filter>
</defs>
</svg>
