<svg width="863" height="894" viewBox="0 0 863 894" fill="none" xmlns="http://www.w3.org/2000/svg">
<g filter="url(#filter0_d_24_72)">
<path d="M431.213 482C564.313 482 672.213 374.101 672.213 241C672.213 107.899 564.313 0 431.213 0C298.112 0 190.213 107.899 190.213 241C190.213 374.101 298.112 482 431.213 482Z" fill="#94A3B8"/>
<path d="M453.791 524.303C447.165 525.504 440.385 525.581 433.733 524.531L349.429 511.218C344.306 510.41 339.31 508.94 334.566 506.846L267.827 477.398C256.899 472.576 244.78 471.125 233.022 473.232L131.166 491.484C108.697 495.51 90.459 511.938 84.1136 533.865L4.40194 809.321C-6.70242 847.694 22.0899 886 62.0372 886H796.92C837.887 886 866.807 845.854 853.831 806.996L761.546 530.635C754.807 510.453 737.884 495.351 717.07 490.941L637.871 474.164C625.114 471.462 611.823 472.989 600.012 478.515L539.771 506.698C535.085 508.89 530.135 510.467 525.045 511.39L453.791 524.303Z" fill="#94A3B8"/>
</g>
<defs>
<filter id="filter0_d_24_72" x="0" y="0" width="862.966" height="894" filterUnits="userSpaceOnUse" color-interpolation-filters="sRGB">
<feFlood flood-opacity="0" result="BackgroundImageFix"/>
<feColorMatrix in="SourceAlpha" type="matrix" values="0 0 0 0 0 0 0 0 0 0 0 0 0 0 0 0 0 0 127 0" result="hardAlpha"/>
<feOffset dx="2" dy="4"/>
<feGaussianBlur stdDeviation="2"/>
<feComposite in2="hardAlpha" operator="out"/>
<feColorMatrix type="matrix" values="0 0 0 0 0 0 0 0 0 0 0 0 0 0 0 0 0 0 0.25 0"/>
<feBlend mode="normal" in2="BackgroundImageFix" result="effect1_dropShadow_24_72"/>
<feBlend mode="normal" in="SourceGraphic" in2="effect1_dropShadow_24_72" result="shape"/>
</filter>
</defs>
</svg>
