<svg width="1800" height="2600" viewBox="0 0 1800 2600" fill="none" xmlns="http://www.w3.org/2000/svg">
<path fill-rule="evenodd" clip-rule="evenodd" d="M493.721 175.435C466.813 194.774 460.678 232.266 480.018 259.174L869.106 800.52C386.354 816.805 0 1213.28 0 1700C0 2197.06 402.944 2600 900 2600C1379.02 2600 1770.63 2225.77 1798.42 1753.73C1799.45 1749.32 1800 1744.72 1800 1740V61C1800 27.8629 1773.14 1.00002 1740 1.00002H1460C1426.86 1.00002 1400 27.8629 1400 61V853.801L804.825 25.7211C785.486 -1.1868 747.994 -7.32196 721.086 12.0179L493.721 175.435ZM1298.76 1398.31L1313.54 1418.88C1368.11 1498.98 1400 1595.77 1400 1700C1400 1976.14 1176.14 2200 900 2200C623.858 2200 400 1976.14 400 1700C400 1423.86 623.858 1200 900 1200C1062.82 1200 1207.47 1277.83 1298.76 1398.31Z" fill="#0085FF"/>
</svg>
