<svg width="1790" height="2604" viewBox="0 0 1790 2604" fill="none" xmlns="http://www.w3.org/2000/svg">
<mask id="path-1-outside-1_5_31" maskUnits="userSpaceOnUse" x="-0.507141" y="-0.265503" width="1791" height="2605" fill="black">
<rect fill="white" x="-0.507141" y="-0.265503" width="1791" height="2605"/>
<path fill-rule="evenodd" clip-rule="evenodd" d="M468.018 261.174C448.678 234.266 454.813 196.774 481.721 177.435L709.086 14.0179C735.994 -5.32196 773.486 0.813203 792.825 27.7211L1279.28 704.534C1313.29 751.859 1388 727.797 1388 669.517V63C1388 29.8629 1414.86 3.00002 1448 3.00002H1728C1761.14 3.00002 1788 29.8629 1788 63V1742C1788 1744.94 1787.79 1747.84 1787.38 1750.67C1786.89 1754.06 1786.33 1757.47 1786.1 1760.88C1755.78 2230.49 1365.27 2602 888 2602C447.76 2602 81.3475 2285.91 3.33322 1868.3C-3.23122 1833.16 24.7438 1802 60.4911 1802H348.957C377.494 1802 401.71 1822.25 410.118 1849.52C473.06 2053.65 663.206 2202 888 2202C1164.14 2202 1388 1978.14 1388 1702C1388 1597.77 1356.11 1500.98 1301.54 1420.88L1286.76 1400.31C1195.47 1279.83 1050.82 1202 888 1202C663.206 1202 473.06 1350.35 410.118 1554.48C401.71 1581.75 377.494 1602 348.957 1602H60.491C24.7438 1602 -3.23165 1570.84 3.33266 1535.7C72.7429 1164.14 370.454 872.949 745.339 813.244C792.703 805.7 819.55 750.269 791.559 711.323L468.018 261.174Z"/>
</mask>
<path fill-rule="evenodd" clip-rule="evenodd" d="M468.018 261.174C448.678 234.266 454.813 196.774 481.721 177.435L709.086 14.0179C735.994 -5.32196 773.486 0.813203 792.825 27.7211L1279.28 704.534C1313.29 751.859 1388 727.797 1388 669.517V63C1388 29.8629 1414.86 3.00002 1448 3.00002H1728C1761.14 3.00002 1788 29.8629 1788 63V1742C1788 1744.94 1787.79 1747.84 1787.38 1750.67C1786.89 1754.06 1786.33 1757.47 1786.1 1760.88C1755.78 2230.49 1365.27 2602 888 2602C447.76 2602 81.3475 2285.91 3.33322 1868.3C-3.23122 1833.16 24.7438 1802 60.4911 1802H348.957C377.494 1802 401.71 1822.25 410.118 1849.52C473.06 2053.65 663.206 2202 888 2202C1164.14 2202 1388 1978.14 1388 1702C1388 1597.77 1356.11 1500.98 1301.54 1420.88L1286.76 1400.31C1195.47 1279.83 1050.82 1202 888 1202C663.206 1202 473.06 1350.35 410.118 1554.48C401.71 1581.75 377.494 1602 348.957 1602H60.491C24.7438 1602 -3.23165 1570.84 3.33266 1535.7C72.7429 1164.14 370.454 872.949 745.339 813.244C792.703 805.7 819.55 750.269 791.559 711.323L468.018 261.174Z" fill="url(#paint0_linear_5_31)"/>
<path d="M481.721 177.435L480.554 175.811L481.721 177.435ZM468.018 261.174L469.642 260.006L468.018 261.174ZM709.086 14.0179L707.919 12.3938L709.086 14.0179ZM792.825 27.7211L794.449 26.5539L792.825 27.7211ZM1301.54 1420.88L1303.2 1419.75L1303.18 1419.73L1303.17 1419.71L1301.54 1420.88ZM1286.76 1400.31L1288.39 1399.14L1288.37 1399.12L1288.36 1399.1L1286.76 1400.31ZM745.339 813.244L745.653 815.219L745.339 813.244ZM791.559 711.323L793.183 710.156L791.559 711.323ZM1787.38 1750.67L1785.4 1750.38L1787.38 1750.67ZM1786.1 1760.88L1788.1 1761.01L1786.1 1760.88ZM410.118 1554.48L412.029 1555.07L410.118 1554.48ZM1279.28 704.534L1280.9 703.367L1279.28 704.534ZM480.554 175.811C452.749 195.795 446.409 234.536 466.394 262.341L469.642 260.006C450.947 233.995 456.877 197.754 482.888 179.059L480.554 175.811ZM707.919 12.3938L480.554 175.811L482.888 179.059L710.254 15.6419L707.919 12.3938ZM794.449 26.5539C774.465 -1.25099 735.724 -7.59066 707.919 12.3938L710.254 15.6419C736.265 -3.05326 772.506 2.8774 791.201 28.8884L794.449 26.5539ZM1280.9 703.367L794.449 26.5539L791.201 28.8884L1277.65 705.702L1280.9 703.367ZM1386 63V669.517H1390V63H1386ZM1448 1.00002C1413.76 1.00002 1386 28.7583 1386 63H1390C1390 30.9675 1415.97 5.00002 1448 5.00002V1.00002ZM1728 1.00002H1448V5.00002H1728V1.00002ZM1790 63C1790 28.7584 1762.24 1.00002 1728 1.00002V5.00002C1760.03 5.00002 1786 30.9675 1786 63H1790ZM1790 1742V63H1786V1742H1790ZM1789.36 1750.96C1789.78 1748.03 1790 1745.04 1790 1742H1786C1786 1744.85 1785.79 1747.65 1785.4 1750.38L1789.36 1750.96ZM888 2604C1366.33 2604 1757.7 2231.67 1788.1 1761.01L1784.11 1760.75C1753.85 2229.32 1364.21 2600 888 2600V2604ZM1.36723 1868.67C79.5551 2287.21 446.78 2604 888 2604V2600C448.741 2600 83.1399 2284.61 5.2992 1867.93L1.36723 1868.67ZM348.957 1800H60.4911V1804H348.957V1800ZM888 2200C664.108 2200 474.72 2052.25 412.029 1848.93L408.207 1850.11C471.4 2055.06 662.304 2204 888 2204V2200ZM1386 1702C1386 1977.04 1163.04 2200 888 2200V2204C1165.25 2204 1390 1979.25 1390 1702H1386ZM1299.89 1422C1354.23 1501.79 1386 1598.18 1386 1702H1390C1390 1597.35 1357.98 1500.18 1303.2 1419.75L1299.89 1422ZM1285.14 1401.48L1299.92 1422.04L1303.17 1419.71L1288.39 1399.14L1285.14 1401.48ZM888 1204C1050.17 1204 1194.24 1281.51 1285.17 1401.52L1288.36 1399.1C1196.7 1278.14 1051.48 1200 888 1200V1204ZM412.029 1555.07C474.72 1351.75 664.108 1204 888 1204V1200C662.304 1200 471.4 1348.94 408.207 1553.89L412.029 1555.07ZM60.491 1604H348.957V1600H60.491V1604ZM745.024 811.269C369.302 871.107 70.9318 1162.95 1.36667 1535.34L5.29865 1536.07C74.5541 1165.34 371.606 874.79 745.653 815.219L745.024 811.269ZM466.394 262.341L789.935 712.49L793.183 710.156L469.642 260.006L466.394 262.341ZM60.491 1600C25.8902 1600 -1.01687 1569.88 5.29865 1536.07L1.36667 1535.34C-5.44644 1571.81 23.5973 1604 60.491 1604V1600ZM348.957 1804C376.503 1804 400.022 1823.56 408.207 1850.11L412.029 1848.93C403.397 1820.93 378.485 1800 348.957 1800V1804ZM5.2992 1867.93C-1.01646 1834.12 25.8904 1804 60.4911 1804V1800C23.5972 1800 -5.44598 1832.2 1.36723 1868.67L5.2992 1867.93ZM745.653 815.219C794.285 807.474 822.16 750.472 793.183 710.156L789.935 712.49C816.941 750.065 791.122 803.927 745.024 811.269L745.653 815.219ZM1785.4 1750.38C1784.92 1753.72 1784.34 1757.23 1784.11 1760.75L1788.1 1761.01C1788.31 1757.7 1788.86 1754.4 1789.36 1750.96L1785.4 1750.38ZM408.207 1553.89C400.022 1580.44 376.503 1600 348.957 1600V1604C378.485 1604 403.397 1583.07 412.029 1555.07L408.207 1553.89ZM1277.65 705.702C1312.8 754.604 1390 729.74 1390 669.517H1386C1386 725.854 1313.78 749.114 1280.9 703.367L1277.65 705.702Z" fill="#60A5FA" fill-opacity="0.6" mask="url(#path-1-outside-1_5_31)"/>
<defs>
<linearGradient id="paint0_linear_5_31" x1="890.746" y1="2.7345" x2="890.746" y2="2602" gradientUnits="userSpaceOnUse">
<stop stop-color="#60A5FA"/>
<stop offset="1" stop-color="#38BDF8"/>
</linearGradient>
</defs>
</svg>
